<svg width="79" height="79" viewBox="0 0 79 79" fill="none" xmlns="http://www.w3.org/2000/svg">
<path d="M65.9522 23.0951H63.4217C63.2981 23.0945 63.1768 23.129 63.0719 23.1945C62.967 23.2601 62.8829 23.354 62.8292 23.4654C61.7392 25.7364 61.4772 28.3169 62.0886 30.7606C62.131 30.9071 62.2234 31.0341 62.3496 31.1198C62.4758 31.2055 62.628 31.2443 62.7798 31.2296C63.2242 31.2296 63.6809 31.2296 64.15 31.2296H64.9894C65.0936 31.2334 65.1972 31.2117 65.2912 31.1664C65.3851 31.1211 65.4666 31.0536 65.5286 30.9697C65.5906 30.8858 65.6312 30.7881 65.647 30.685C65.6627 30.5819 65.6531 30.4765 65.6189 30.3779C65.2847 29.3361 65.1899 28.2322 65.3416 27.1486C65.4934 26.065 65.8877 25.0296 66.4953 24.1196C66.5678 24.0222 66.6112 23.9063 66.6204 23.7852C66.6297 23.6642 66.6044 23.543 66.5475 23.4357C66.4907 23.3285 66.4046 23.2395 66.2992 23.1792C66.1938 23.1189 66.0735 23.0898 65.9522 23.0951Z" fill="#E743A6"/>
<path d="M31.9205 13.1831C31.9238 13.2992 31.9585 13.4122 32.0209 13.5102C32.0834 13.6081 32.1712 13.6873 32.2751 13.7392C32.379 13.7911 32.495 13.8139 32.6108 13.8051C32.7266 13.7963 32.8379 13.7562 32.9327 13.6892L35.0312 12.2697C35.1325 12.2016 35.2128 12.1066 35.263 11.9954C35.3131 11.8842 35.3312 11.7611 35.3151 11.6401C34.94 9.14637 33.7042 6.86247 31.8218 5.18434C31.7041 5.08591 31.5555 5.03198 31.4021 5.03198C31.2487 5.03198 31.1001 5.08591 30.9824 5.18434C30.6368 5.46825 30.2665 5.73981 29.8838 6.01137L29.1802 6.46809C29.0962 6.52735 29.0276 6.60593 28.9803 6.69723C28.9329 6.78853 28.9082 6.88986 28.9082 6.9927C28.9082 7.09554 28.9329 7.19687 28.9803 7.28817C29.0276 7.37947 29.0962 7.45805 29.1802 7.51731C30.0323 8.19608 30.7209 9.05764 31.1952 10.0383C31.6695 11.019 31.9174 12.0937 31.9205 13.1831Z" fill="#E743A6"/>
<path d="M46.905 12.6276C48.4252 12.6276 49.6577 11.3952 49.6577 9.87497C49.6577 8.35472 48.4252 7.12231 46.905 7.12231C45.3847 7.12231 44.1523 8.35472 44.1523 9.87497C44.1523 11.3952 45.3847 12.6276 46.905 12.6276Z" fill="#E743A6"/>
<path d="M62.4958 69.6928C64.0161 69.6928 65.2485 68.4604 65.2485 66.9402C65.2485 65.4199 64.0161 64.1875 62.4958 64.1875C60.9756 64.1875 59.7432 65.4199 59.7432 66.9402C59.7432 68.4604 60.9756 69.6928 62.4958 69.6928Z" fill="#E743A6"/>
<path d="M62.0636 55.2999C62.4004 54.8013 62.5504 54.1998 62.4872 53.6014C62.424 53.003 62.1516 52.4461 61.718 52.0288L58.1383 48.4738L30.5254 20.8609L26.9704 17.2812C26.5547 16.8457 25.9986 16.571 25.4001 16.5055C24.8017 16.44 24.1993 16.588 23.6993 16.9232C23.4152 17.1312 23.179 17.3975 23.0063 17.7043C22.8337 18.011 22.7286 18.3512 22.6982 18.7019C22.6678 19.0526 22.7128 19.4058 22.8301 19.7377C22.9474 20.0696 23.1343 20.3726 23.3783 20.6263L24.4029 21.6509C24.3112 21.7893 24.2287 21.9336 24.156 22.0829L18.0952 37.3645C17.8983 37.8494 17.8334 38.3779 17.9071 38.8961C17.9809 39.4144 18.1906 39.9038 18.5149 40.3146C19.1954 41.1495 19.5842 42.184 19.6221 43.2603C19.6599 44.3367 19.3448 45.396 18.7247 46.2766C18.3411 46.8208 17.8514 47.2818 17.285 47.6318C16.7186 47.9818 16.0873 48.2136 15.429 48.3134C14.9203 48.3746 14.4368 48.5688 14.0272 48.8766C13.6176 49.1843 13.2964 49.5947 13.096 50.0662L5.17131 69.7174C4.94036 70.2921 4.88335 70.9219 5.00737 71.5287C5.1314 72.1354 5.43098 72.6924 5.8689 73.1303C6.30682 73.5682 6.86377 73.8678 7.47054 73.9918C8.0773 74.1158 8.70714 74.0588 9.28178 73.8279L28.9577 65.9649C29.4292 65.7645 29.8395 65.4433 30.1473 65.0337C30.455 64.6241 30.6493 64.1406 30.7105 63.632C30.8264 62.8669 31.1205 62.1399 31.569 61.5094C32.0176 60.8789 32.608 60.3627 33.2927 60.0023C33.9774 59.642 34.7372 59.4476 35.5108 59.4348C36.2844 59.422 37.0502 59.5913 37.7465 59.9288C38.0851 60.094 38.4039 60.2969 38.6969 60.5337C39.1136 60.8479 39.6058 61.0465 40.1239 61.1093C40.6419 61.1722 41.1674 61.0971 41.6471 60.8916L56.7805 54.8309C56.9298 54.7581 57.0741 54.6756 57.2126 54.584L58.2371 55.6085C58.4908 55.8751 58.8008 56.0816 59.1446 56.213C59.4884 56.3443 59.8572 56.3971 60.224 56.3675C60.5908 56.3379 60.9464 56.2267 61.2647 56.042C61.583 55.8573 61.856 55.6037 62.0636 55.2999ZM27.9949 57.8921C27.2579 58.4257 26.3878 58.7452 25.4806 58.8155C24.5734 58.8857 23.6645 58.704 22.8541 58.2902C22.0438 57.8764 21.3635 57.2468 20.8884 56.4708C20.4133 55.6948 20.1619 54.8026 20.1619 53.8927C20.1619 52.9828 20.4133 52.0907 20.8884 51.3147C21.3635 50.5387 22.0438 49.909 22.8541 49.4953C23.6645 49.0815 24.5734 48.8997 25.4806 48.97C26.3878 49.0402 27.2579 49.3598 27.9949 49.8934C28.6272 50.3511 29.1419 50.9523 29.4969 51.6475C29.8518 52.3427 30.0369 53.1121 30.0369 53.8927C30.0369 54.6733 29.8518 55.4428 29.4969 56.138C29.1419 56.8332 28.6272 57.4343 27.9949 57.8921Z" fill="#E743A6"/>
<path d="M39.4993 21.0091C40.1947 21.0091 40.7584 20.4454 40.7584 19.75C40.7584 19.0547 40.1947 18.491 39.4993 18.491C38.8039 18.491 38.2402 19.0547 38.2402 19.75C38.2402 20.4454 38.8039 21.0091 39.4993 21.0091Z" fill="#E743A6"/>
<path d="M64.1868 40.7591C64.8822 40.7591 65.4459 40.1954 65.4459 39.5C65.4459 38.8047 64.8822 38.241 64.1868 38.241C63.4914 38.241 62.9277 38.8047 62.9277 39.5C62.9277 40.1954 63.4914 40.7591 64.1868 40.7591Z" fill="#E743A6"/>
<path d="M53.9788 37.7718C54.6741 37.7718 55.2378 37.2081 55.2378 36.5127C55.2378 35.8174 54.6741 35.2537 53.9788 35.2537C53.2834 35.2537 52.7197 35.8174 52.7197 36.5127C52.7197 37.2081 53.2834 37.7718 53.9788 37.7718Z" fill="#E743A6"/>
<path d="M12.343 21.0091C13.0384 21.0091 13.6021 20.4454 13.6021 19.75C13.6021 19.0547 13.0384 18.491 12.343 18.491C11.6477 18.491 11.084 19.0547 11.084 19.75C11.084 20.4454 11.6477 21.0091 12.343 21.0091Z" fill="#E743A6"/>
<path d="M51.0407 26.5884C50.8952 26.7342 50.8135 26.9318 50.8135 27.1377C50.8135 27.3437 50.8952 27.5412 51.0407 27.687L51.6825 28.3289C51.8283 28.4744 52.0259 28.5561 52.2318 28.5561C52.4378 28.5561 52.6353 28.4744 52.7811 28.3289L53.423 27.687C53.5688 27.5415 53.7663 27.4598 53.9723 27.4598C54.1783 27.4598 54.3758 27.5415 54.5216 27.687L55.1635 28.3289C55.3093 28.4744 55.5068 28.5561 55.7128 28.5561C55.9187 28.5561 56.1163 28.4744 56.2621 28.3289L56.9039 27.687C57.0494 27.5412 57.1311 27.3437 57.1311 27.1377C57.1311 26.9318 57.0494 26.7342 56.9039 26.5884L56.2744 25.9219C56.1289 25.7761 56.0472 25.5785 56.0472 25.3726C56.0472 25.1666 56.1289 24.9691 56.2744 24.8233L56.9163 24.1814C57.0618 24.0356 57.1435 23.8381 57.1435 23.6321C57.1435 23.4261 57.0618 23.2286 56.9163 23.0828L56.2744 22.4409C56.1286 22.2954 55.9311 22.2137 55.7251 22.2137C55.5192 22.2137 55.3216 22.2954 55.1758 22.4409L54.5339 23.0828C54.3881 23.2283 54.1906 23.31 53.9846 23.31C53.7787 23.31 53.5811 23.2283 53.4353 23.0828L52.7935 22.4409C52.6477 22.2954 52.4501 22.2137 52.2442 22.2137C52.0382 22.2137 51.8407 22.2954 51.6949 22.4409L51.053 23.0828C50.9075 23.2286 50.8258 23.4261 50.8258 23.6321C50.8258 23.8381 50.9075 24.0356 51.053 24.1814L51.6949 24.8233C51.8404 24.9691 51.9221 25.1666 51.9221 25.3726C51.9221 25.5785 51.8404 25.7761 51.6949 25.9219L51.0407 26.5884Z" fill="#E743A6"/>
<path d="M66.2483 9.14674H65.6064C65.4686 9.14706 65.3358 9.09495 65.2349 9.00097C65.1341 8.90699 65.0727 8.77818 65.0633 8.64064V7.94939C65.0633 7.87702 65.0489 7.80537 65.0208 7.73866C64.9928 7.67194 64.9516 7.61151 64.8999 7.56091C64.8481 7.51032 64.7868 7.47057 64.7195 7.44401C64.6522 7.41746 64.5802 7.40462 64.5078 7.40627H63.866C63.7947 7.40627 63.724 7.42032 63.6581 7.44761C63.5922 7.47491 63.5324 7.51491 63.4819 7.56535C63.4315 7.61578 63.3915 7.67565 63.3642 7.74155C63.3369 7.80744 63.3228 7.87807 63.3228 7.94939V8.64064C63.3228 8.78469 63.2656 8.92284 63.1638 9.02469C63.0619 9.12655 62.9238 9.18377 62.7797 9.18377H62.1378C61.9938 9.18377 61.8557 9.24099 61.7538 9.34285C61.6519 9.4447 61.5947 9.58285 61.5947 9.72689V10.3688C61.5947 10.5128 61.6519 10.651 61.7538 10.7528C61.8557 10.8547 61.9938 10.9119 62.1378 10.9119H62.7797C62.9238 10.9119 63.0619 10.9691 63.1638 11.071C63.2656 11.1728 63.3228 11.311 63.3228 11.455V12.0969C63.3228 12.2409 63.3801 12.3791 63.4819 12.4809C63.5838 12.5828 63.7219 12.64 63.866 12.64H64.5078C64.6519 12.64 64.79 12.5828 64.8919 12.4809C64.9938 12.3791 65.051 12.2409 65.051 12.0969V11.4427C65.051 11.2986 65.1082 11.1605 65.21 11.0586C65.3119 10.9568 65.45 10.8995 65.5941 10.8995H66.236C66.38 10.8995 66.5182 10.8423 66.62 10.7405C66.7219 10.6386 66.7791 10.5005 66.7791 10.3564V9.70221C66.7807 9.63088 66.7683 9.55992 66.7425 9.4934C66.7167 9.42688 66.6781 9.36609 66.6288 9.3145C66.5795 9.26292 66.5205 9.22155 66.4552 9.19277C66.39 9.16398 66.3196 9.14834 66.2483 9.14674Z" fill="#E743A6"/>
<path d="M72.9632 57.2996H72.3213C72.1772 57.2996 72.0391 57.2424 71.9372 57.1405C71.8354 57.0387 71.7782 56.9005 71.7782 56.7565V56.1146C71.7816 56.0402 71.7696 55.9658 71.7431 55.8962C71.7165 55.8266 71.676 55.7632 71.6239 55.71C71.5718 55.6567 71.5093 55.6147 71.4402 55.5867C71.3712 55.5586 71.2972 55.545 71.2227 55.5468H70.5808C70.4368 55.5468 70.2986 55.604 70.1968 55.7059C70.0949 55.8077 70.0377 55.9459 70.0377 56.0899V56.7812C70.0377 56.9252 69.9805 57.0633 69.8786 57.1652C69.7768 57.2671 69.6386 57.3243 69.4946 57.3243H68.8527C68.7086 57.3243 68.5705 57.3815 68.4686 57.4834C68.3668 57.5852 68.3096 57.7234 68.3096 57.8674V58.5093C68.3096 58.6533 68.3668 58.7915 68.4686 58.8933C68.5705 58.9952 68.7086 59.0524 68.8527 59.0524H69.4946C69.6386 59.0524 69.7768 59.1096 69.8786 59.2115C69.9805 59.3133 70.0377 59.4515 70.0377 59.5955V60.2374C70.0377 60.3815 70.0949 60.5196 70.1968 60.6215C70.2986 60.7233 70.4368 60.7805 70.5808 60.7805H71.2227C71.3667 60.7805 71.5049 60.7233 71.6067 60.6215C71.7086 60.5196 71.7658 60.3815 71.7658 60.2374V59.5955C71.7658 59.4515 71.823 59.3133 71.9249 59.2115C72.0268 59.1096 72.1649 59.0524 72.309 59.0524H72.9508C73.0949 59.0524 73.233 58.9952 73.3349 58.8933C73.4367 58.7915 73.494 58.6533 73.494 58.5093V57.8674C73.4973 57.7951 73.4861 57.7228 73.461 57.6548C73.436 57.5869 73.3976 57.5246 73.3482 57.4717C73.2987 57.4188 73.2392 57.3763 73.1731 57.3468C73.1069 57.3172 73.0356 57.3012 72.9632 57.2996Z" fill="#E743A6"/>
<path d="M7.80064 33.0812C7.74876 33.1318 7.70752 33.1923 7.67937 33.2591C7.65122 33.3258 7.63672 33.3976 7.63672 33.47C7.63672 33.5425 7.65122 33.6142 7.67937 33.681C7.70752 33.7478 7.74876 33.8083 7.80064 33.8589L8.25736 34.3156C8.30795 34.3675 8.36842 34.4087 8.4352 34.4368C8.50198 34.465 8.57371 34.4795 8.64618 34.4795C8.71865 34.4795 8.79039 34.465 8.85717 34.4368C8.92395 34.4087 8.98441 34.3675 9.03501 34.3156L9.49173 33.8589C9.54233 33.807 9.6028 33.7658 9.66957 33.7376C9.73635 33.7094 9.80809 33.6949 9.88056 33.6949C9.95303 33.6949 10.0248 33.7094 10.0915 33.7376C10.1583 33.7658 10.2188 33.807 10.2694 33.8589L10.7261 34.3156C10.7767 34.3675 10.8372 34.4087 10.9039 34.4368C10.9707 34.465 11.0425 34.4795 11.1149 34.4795C11.1874 34.4795 11.2591 34.465 11.3259 34.4368C11.3927 34.4087 11.4532 34.3675 11.5038 34.3156L11.9605 33.8589C12.0124 33.8083 12.0536 33.7478 12.0817 33.681C12.1099 33.6142 12.1244 33.5425 12.1244 33.47C12.1244 33.3976 12.1099 33.3258 12.0817 33.2591C12.0536 33.1923 12.0124 33.1318 11.9605 33.0812L11.5038 32.6245C11.4519 32.5739 11.4106 32.5134 11.3825 32.4466C11.3543 32.3799 11.3398 32.3081 11.3398 32.2357C11.3398 32.1632 11.3543 32.0915 11.3825 32.0247C11.4106 31.9579 11.4519 31.8974 11.5038 31.8468L11.9605 31.3901C12.0124 31.3395 12.0536 31.279 12.0817 31.2123C12.1099 31.1455 12.1244 31.0738 12.1244 31.0013C12.1244 30.9288 12.1099 30.8571 12.0817 30.7903C12.0536 30.7235 12.0124 30.6631 11.9605 30.6125L11.5038 30.1557C11.4532 30.1039 11.3927 30.0626 11.3259 30.0345C11.2591 30.0063 11.1874 29.9918 11.1149 29.9918C11.0425 29.9918 10.9707 30.0063 10.9039 30.0345C10.8372 30.0626 10.7767 30.1039 10.7261 30.1557L10.2694 30.6125C10.2188 30.6643 10.1583 30.7056 10.0915 30.7337C10.0248 30.7619 9.95303 30.7764 9.88056 30.7764C9.80809 30.7764 9.73635 30.7619 9.66957 30.7337C9.6028 30.7056 9.54233 30.6643 9.49173 30.6125L9.03501 30.1557C8.98441 30.1039 8.92395 30.0626 8.85717 30.0345C8.79039 30.0063 8.71865 29.9918 8.64618 29.9918C8.57371 29.9918 8.50198 30.0063 8.4352 30.0345C8.36842 30.0626 8.30795 30.1039 8.25736 30.1557L7.80064 30.6125C7.74876 30.6631 7.70752 30.7235 7.67937 30.7903C7.65122 30.8571 7.63672 30.9288 7.63672 31.0013C7.63672 31.0738 7.65122 31.1455 7.67937 31.2123C7.70752 31.279 7.74876 31.3395 7.80064 31.3901L8.25736 31.8468C8.30924 31.8974 8.35047 31.9579 8.37862 32.0247C8.40677 32.0915 8.42127 32.1632 8.42127 32.2357C8.42127 32.3081 8.40677 32.3799 8.37862 32.4466C8.35047 32.5134 8.30924 32.5739 8.25736 32.6245L7.80064 33.0812Z" fill="#E743A6"/>
</svg>
