<svg width="300" height="109" viewBox="0 0 300 109" fill="none" xmlns="http://www.w3.org/2000/svg">
<path opacity="0.118234" fill-rule="evenodd" clip-rule="evenodd" d="M0 16.782C0 16.782 9.39374 17.8214 25.4973 27.0589C41.6008 36.2965 62.216 21.9205 62.216 21.9205C62.216 21.9205 95.6463 2.3822 128.923 11.8123C162.199 21.2425 186.106 -2.3979 205.771 4.70722C225.436 11.8123 230.86 32.1974 245.265 27.0589C250.638 25.1421 258.01 25.0005 264.135 20.8954C268.956 17.6643 277.675 6.29914 277.675 6.29914L285.651 8.2927L294.303 12.3529L311.318 2H331V93.2465C331 102.083 323.837 109.247 315 109.247H16C7.1635 109.247 5.1337e-05 102.083 4.60189e-05 93.2465L0 16.782Z" fill="url(#paint0_linear_58_92)"/>
<path d="M0 15.4335C0 15.4335 9.36121 16.4732 25.409 25.7142C41.4568 34.9553 62.0006 20.5739 62.0006 20.5739C62.0006 20.5739 95.315 1.02822 128.476 10.4619C161.637 19.8956 185.462 -3.75367 205.058 3.35412C224.655 10.4619 230.06 30.8546 244.415 25.7142C258.77 20.5739 263.807 25.8816 269.923 13.4706C276.04 1.05955 282.069 6.76685 288.867 10.4619C295.665 14.157 304.016 4.88384 304.016 4.88384" stroke="url(#paint1_linear_58_92)" stroke-width="2.5"/>
<defs>
<linearGradient id="paint0_linear_58_92" x1="322.631" y1="4.28476" x2="54.8037" y2="135.245" gradientUnits="userSpaceOnUse">
<stop stop-color="#12046B"/>
<stop offset="0.0423345" stop-color="#D30B8F"/>
<stop offset="1" stop-color="#C20B83"/>
</linearGradient>
<linearGradient id="paint1_linear_58_92" x1="304.016" y1="2" x2="0" y2="2" gradientUnits="userSpaceOnUse">
<stop stop-color="#12046B"/>
<stop offset="1" stop-color="#C10C84"/>
</linearGradient>
</defs>
</svg>
